<?xml version="1.0" encoding="UTF-8"?>
<svg width="139px" height="47px" viewBox="0 0 139 47" version="1.1" xmlns="http://www.w3.org/2000/svg" xmlns:xlink="http://www.w3.org/1999/xlink">
    <!-- Generator: Sketch 59.1 (86144) - https://sketch.com -->
    <title>combined-shape-22</title>
    <desc>Created with Sketch.</desc>
    <g id="Page-1" stroke="none" stroke-width="1" fill="none" fill-rule="evenodd">
        <g id="combined-shape-22" transform="translate(0.000000, -1.000000)" fill="#FFFFFF">
            <path d="M65.83,13.011 L65.83,48 L58.675,48 L58.675,13.011 L65.83,13.011 Z M82.53,12.575 C85.502,12.575 87.79,13.592 89.436,15.718 L89.436,12.945 L96.663,12.945 L96.663,37.767 L89.664,37.767 L89.664,34.994 C87.514,37.12 85.319,37.907 82.392,37.907 C79.419,37.907 76.857,36.936 74.707,34.994 C71.872,32.452 70.407,29.124 70.407,25.24 C70.407,21.681 71.78,18.491 74.341,15.995 C76.628,13.73 79.419,12.575 82.529,12.575 L82.53,12.575 Z M10.415,11.963 C15.142,11.963 19.785,15.403 19.785,15.403 L17.365,20.529 C17.365,20.529 13.529,18.042 10.329,18.042 C8.305,18.042 7.549,18.737 7.549,19.711 C7.549,21.124 9.771,21.697 12.452,22.541 C17.885,24.247 20.304,26.784 20.300005,29.895 C20.293,34.718 16.629,37.885 10.055,37.885 C6.244,37.885 2.363,36.103 1.77635684e-15,34.408 L2.774,28.968 C5.194,30.752 8.709,31.766 10.763,31.766 C12.407,31.766 13.41,31.328 13.41,30.26 C13.41,28.675 8.07,27.753 5.386,26.29 C2.54,24.875 0.847,22.682 0.847,19.613 C0.847,15.861 4.44,11.963 10.415,11.963 L10.415,11.963 Z M39.092,12.783 C39.572,12.783 40.197,12.831 40.965,12.928 L40.965,19.722 C40.1746556,19.5619066 39.3703944,19.4805091 38.564,19.479 C34.482,19.479 32.081,21.503 32.081,25.532 L32.081,37.469 L24.926,37.469 L24.926,13.011 L32.081,13.011 L32.081,16.664 C34.679,13.369 37.671,12.783 39.092,12.783 L39.092,12.783 Z M116.742,12.477 C122.649,12.477 126.012,16.262 126.012,22.62 L126.012,37.47 L118.855,37.47 L118.855,23.492 C118.855,20.629 117.271,18.882 114.438,18.882 C111.701,18.882 109.684,20.872 109.684,23.735 L109.684,37.47 L102.529,37.47 L102.529,13.011 L109.684,13.011 L109.684,16.069 C111.266,14.024 113.742,12.477 116.743,12.477 L116.742,12.477 Z M137.752,30.445 C139.336,32.046 139.336,34.666 137.752,36.268 C136.215,37.869 133.622,37.869 132.037,36.268 C130.453,34.666 130.453,32.046 132.037,30.445 C133.621,28.845 136.215,28.845 137.752,30.445 Z M52.782,13.011 L52.782,37.47 L45.627,37.47 L45.627,13.01 L52.782,13.01 L52.782,13.011 Z M83.718,19.047 C80.288,19.047 77.635,21.866 77.635,25.194 C77.635,28.661 80.288,31.296 83.993,31.296 C87.103,31.296 89.71,28.706 89.71,25.286 C89.71,21.728 87.103,19.046 83.718,19.046 L83.718,19.047 Z M134.918,15.641 C137.223,15.641 139,17.484 139,19.765 C139,22.046 137.223,23.89 134.919,23.89 C132.661,23.89 130.884,22.046 130.884,19.765 C130.884,17.484 132.661,15.641 134.919,15.641 L134.918,15.641 Z M65.135,2.2 C66.719,3.752 66.719,6.374 65.135,7.975 C64.3731897,8.74336804 63.3360094,9.17558826 62.254,9.17558826 C61.1719906,9.17558826 60.1348103,8.74336804 59.373,7.975 C57.788,6.374 57.788,3.752 59.373,2.2 C60.1348103,1.43163196 61.1719906,0.999411735 62.254,0.999411735 C63.3360094,0.999411735 64.3731897,1.43163196 65.135,2.2 L65.135,2.2 Z M52.086,2.2 C53.671,3.752 53.671,6.374 52.086,7.975 C51.3241897,8.74336804 50.2870094,9.17558826 49.205,9.17558826 C48.1229906,9.17558826 47.0858103,8.74336804 46.324,7.975 C44.74,6.374 44.74,3.752 46.324,2.2 C47.0858103,1.43163196 48.1229906,0.999411735 49.205,0.999411735 C50.2870094,0.999411735 51.3241897,1.43163196 52.086,2.2 L52.086,2.2 Z" id="Shape"></path>
        </g>
    </g>
</svg>